<?xml version="1.0" standalone="no"?><!DOCTYPE svg PUBLIC "-//W3C//DTD SVG 1.1//EN" "http://www.w3.org/Graphics/SVG/1.1/DTD/svg11.dtd">
<svg class="icon" width="200px" height="200.00px" viewBox="0 0 1024 1024" version="1.1"
  xmlns="http://www.w3.org/2000/svg">
  <path d="M450.56 103.619048s66.023619 35.59619 91.428571 106.691047c5.071238 15.213714 20.284952 25.35619 35.547429 25.356191 5.071238 0 7.606857 0 12.678095-2.535619 20.333714-7.606857 30.47619-27.940571 22.869334-48.274286C577.487238 83.334095 488.594286 37.64419 483.57181 35.108571 465.773714 24.868571 442.904381 32.52419 432.761905 50.224762c-10.142476 17.798095 0 43.203048 17.798095 53.345524z m454.558476 629.857523l-119.320381-119.369142c-38.13181-38.083048-101.61981-40.667429-139.702857-2.535619l-53.345524 50.761142a24.527238 24.527238 0 0 1-35.547428 0L407.356952 512.487619a23.064381 23.064381 0 0 1-7.606857-17.749333c0-7.606857 2.535619-12.678095 7.606857-17.798096l48.274286-48.274285c20.284952-17.749333 30.47619-43.154286 30.476191-71.094857S475.91619 304.274286 455.631238 286.47619L336.262095 167.107048c-38.083048-38.083048-104.155429-38.083048-142.238476 0L140.678095 220.452571c-2.535619 2.535619-2.535619 2.535619-2.535619 5.071239-121.904762 139.702857-71.094857 398.726095 119.369143 589.190095 93.96419 93.96419 205.726476 154.916571 314.953143 177.785905a461.287619 461.287619 0 0 0 81.237333 7.606857c76.214857 0 142.238476-22.820571 193.048381-68.559238 0 0 2.535619 0 2.535619-2.535619l53.296762-53.345524c43.203048-38.034286 43.203048-101.571048 2.535619-142.189715z m-317.44 185.392762c-96.548571-17.798095-195.535238-73.630476-276.821333-157.500952-81.286095-83.772952-137.167238-180.272762-157.500953-276.821333-17.749333-91.37981 0-167.594667 48.274286-218.404572l45.738667-45.689905a24.527238 24.527238 0 0 1 35.59619 0L402.285714 339.821714a23.064381 23.064381 0 0 1 7.606857 17.749334c0 7.655619-2.535619 12.678095-7.606857 17.798095l-48.274285 48.274286c-20.284952 20.284952-30.47619 43.154286-30.476191 71.094857s10.191238 53.345524 30.476191 71.094857l149.845333 149.845333c38.13181 38.083048 101.61981 40.618667 139.702857 2.535619l53.345524-50.761143a24.527238 24.527238 0 0 1 35.547428 0l119.369143 119.320381a24.527238 24.527238 0 0 1 0 35.596191l-45.738666 45.689905c-50.761143 50.809905-126.976 68.559238-218.404572 50.809904z" />
</svg>
