<?xml version="1.0" standalone="no"?><!DOCTYPE svg PUBLIC "-//W3C//DTD SVG 1.1//EN" "http://www.w3.org/Graphics/SVG/1.1/DTD/svg11.dtd">
<svg class="icon" width="200px" height="193.21px" viewBox="0 0 1060 1024" version="1.1"
  xmlns="http://www.w3.org/2000/svg">
  <path d="M953.385844 0.053003H102.692707A103.355241 103.355241 0 0 0 0 102.74571v555.203153a103.355241 103.355241 0 0 0 102.692707 103.355241h390.232288v191.472209H183.521806a35.776814 35.776814 0 1 0 0 70.891095h689.697473a35.776814 35.776814 0 1 0 0-70.891095H563.81609v-191.472209h389.569754A103.355241 103.355241 0 0 0 1060.053753 657.948863V102.74571A103.355241 103.355241 0 0 0 953.385844 0.053003z m31.801613 657.89586a31.801613 31.801613 0 0 1-31.801613 31.801613H102.692707a31.801613 31.801613 0 0 1-31.139079-31.801613V102.74571a31.139079 31.139079 0 0 1 31.139079-31.139079h850.693137a31.139079 31.139079 0 0 1 31.801613 31.139079z" />
  <path d="M596.280236 291.567785a23.851209 23.851209 0 0 0 39.752016 17.225873l62.940692-58.96549a22.526142 22.526142 0 0 0 0-34.451747l-62.940692-58.302956a23.851209 23.851209 0 0 0-39.752016 17.225873V198.813081H227.249023a33.12668 33.12668 0 1 0 0 66.25336H596.280236zM824.854327 430.037306H457.148181V404.198496a23.851209 23.851209 0 0 0-39.752016-17.225873l-66.253359 58.302956a23.851209 23.851209 0 0 0 0 34.451747l66.253359 58.96549a23.851209 23.851209 0 0 0 39.752016-17.225873v-25.838811h367.706146a33.12668 33.12668 0 1 0 0-66.253359z" />
</svg>
