<?xml version="1.0" standalone="no"?><!DOCTYPE svg PUBLIC "-//W3C//DTD SVG 1.1//EN" "http://www.w3.org/Graphics/SVG/1.1/DTD/svg11.dtd">
<svg class="icon" width="200px" height="186.01px" viewBox="0 0 1101 1024" version="1.1"
  xmlns="http://www.w3.org/2000/svg">
  <path d="M1068.832269 100.937143a61.35395 61.35395 0 0 0-35.624874-10.584202 104.637311 104.637311 0 0 0-41.04605 9.551597L791.663866 196.53916V172.10084 86.05042A86.05042 86.05042 0 0 0 705.613445 0H86.05042A86.05042 86.05042 0 0 0 0 86.05042v621.111933a86.05042 86.05042 0 0 0 86.05042 86.05042h80.887395L57.653782 957.827227a43.02521 43.02521 0 1 0 72.712605 46.123025l138.369075-210.479328h261.937479l138.369076 210.479328a43.02521 43.02521 0 1 0 72.712605-46.123025l-109.284034-164.356303H705.613445a86.05042 86.05042 0 0 0 86.050421-86.05042v-75.466218-28.224538l197.915966 97.495126 1.97916 0.946555a103.260504 103.260504 0 0 0 41.04605 9.551596 64.193613 64.193613 0 0 0 34.420168-10.067899c21.340504-12.993613 33.559664-38.550588 33.559664-70.475294V169.691429c0.860504-41.906555-18.50084-60.751597-31.752605-68.754286zM705.613445 620.939832a86.05042 86.05042 0 0 1-86.05042 86.05042H172.10084a86.05042 86.05042 0 0 1-86.05042-86.05042V172.531092A86.05042 86.05042 0 0 1 172.10084 86.05042h447.462185a86.05042 86.05042 0 0 1 86.05042 86.05042z m309.781513-3.355966L792.438319 507.697479V291.969076L1015.394958 184.40605zM189.310924 517.507227m43.02521 0l189.310925 0q43.02521 0 43.02521 43.02521l0 0.172101q0 43.02521-43.02521 43.02521l-189.310925 0q-43.02521 0-43.02521-43.02521l0-0.172101q0-43.02521 43.02521-43.02521Z" />
</svg>
